<svg version="1.2" xmlns="http://www.w3.org/2000/svg" viewBox="0 0 1000 800" width="1000" height="800">
	<title>aviation_logo-12-ai</title>
	<defs>
		<linearGradient id="g1" x1="571.3" y1="321.4" x2="-136.3" y2="756.5" gradientUnits="userSpaceOnUse">
			<stop offset="0" stop-color="#2aa5de"/>
			<stop offset=".539" stop-color="#2177b8"/>
			<stop offset="1" stop-color="#29418f"/>
		</linearGradient>
		<linearGradient id="g2" x1="797.2" y1="216" x2="146.2" y2="527.2" gradientUnits="userSpaceOnUse">
			<stop offset="0" stop-color="#2aa5de"/>
			<stop offset=".539" stop-color="#2177b8"/>
			<stop offset="1" stop-color="#29418f"/>
		</linearGradient>
		<linearGradient id="g3" x1="825.6" y1="411.3" x2="377.6" y2="904.2" gradientUnits="userSpaceOnUse">
			<stop offset="0" stop-color="#2aa5de"/>
			<stop offset=".539" stop-color="#2177b8"/>
			<stop offset="1" stop-color="#29418f"/>
		</linearGradient>
		<linearGradient id="g4" x1="721.2" y1="269.6" x2="217" y2="824.2" gradientUnits="userSpaceOnUse">
			<stop offset="0" stop-color="#2aa5de"/>
			<stop offset=".539" stop-color="#2177b8"/>
			<stop offset="1" stop-color="#29418f"/>
		</linearGradient>
		<linearGradient id="g5" x1="811.7" y1="340.1" x2="255.9" y2="951.5" gradientUnits="userSpaceOnUse">
			<stop offset="0" stop-color="#2aa5de"/>
			<stop offset=".539" stop-color="#2177b8"/>
			<stop offset="1" stop-color="#29418f"/>
		</linearGradient>
	</defs>
	<style>
		.s0 { fill: url(#g1) } 
		.s1 { fill: url(#g2) } 
		.s2 { fill: url(#g3) } 
		.s3 { fill: url(#g4) } 
		.s4 { fill: url(#g5) } 
	</style>
	<g id="_Artboards_">
	</g>
	<g id="Layer 2">
		<g id="&lt;Group&gt;">
			<g id="&lt;Group&gt;">
				<path id="&lt;Path&gt;" class="s0" d="m723 237.9c0 0-24.2 0.1-36.9-10.2-12.7-10.2-26.7-25.8-37.5-24.5 0 0 22.7 23.6 17.1 29-0.7 0.7-4.2 1.6-6.4 2-1.1 0.3-2.1 0.9-2.8 1.8l-0.5 0.6c-1.3 1.5-1.5 3.7-0.5 5.5 0.9 1.7 2.7 2.7 4.7 2.6 11.6-0.7 51.5-3.4 62.8-6.8z"/>
				<path id="&lt;Compound Path&gt;" fill-rule="evenodd" class="s1" d="m754.3 232.2c-4.4 0.7-26.4 2.7-26.4 2.7-5.7 0.3-11.4-0.2-16.9-1.6-7-1.6-16.1-4.5-22.5-9 0 0 15.7-2.9 37.3-7.1 3.8 5.1 10.6 12.4 10.6 12.4 0.2-0.2-6.7-10.1-14.4-21.2l-6.4 2.4c-1.5 0.5-3.2-0.2-3.8-1.7-0.5-1.5 0.2-3.2 1.8-3.8l5-1.9c-9-13-17.8-26.1-16.8-26.2 2.1-0.2 31.3 29.6 40.1 37l5 4.3-3-4.8c0 0 22.1-6.9 31.4-6.2 2.7 0.3 5.3 1.2 7.8 2.2 0 0-3.7 0.5-6.6 2.2-0.5 0.4-0.8 1-0.8 1.6 0.1 0.4 0.5 0.8 1 0.7l12.4-1.3c2.8 1.9 4.9 4 5.8 5.9 2.5 5.1-11.3 8.5-40.6 13.4zm-2.7-7.5l-0.2-2.1-1.6 0.3 0.2 2.1zm3-0.5l-0.2-2.1-1.6 0.2 0.2 2.1zm2.9-0.5l-0.2-2.1-1.6 0.3 0.2 2.1zm2.9-0.5l-0.2-2.1-1.6 0.3 0.2 2.1zm2.9-0.5l-0.2-2.1-1.6 0.3 0.2 2.1zm2.9-0.6l-0.2-2-1.6 0.2 0.2 2.1zm3-0.5l-0.3-2.1-1.6 0.3 0.3 2.1zm2.9-0.5l-0.2-2.1-1.6 0.3 0.2 2.1zm2.9-0.5l-0.2-2.1-1.6 0.2 0.2 2.1zm2.9-0.5l-0.2-2.1-1.6 0.3 0.2 2.1zm2.9-0.5l-0.2-2.1-1.6 0.3 0.2 2.1zm2.9-0.5l-0.2-2.1-1.6 0.3 0.2 2z"/>
			</g>
			<path id="&lt;Path&gt;" class="s2" d="m245.6 622.8c0 0 30.3-321.1 394.7-368.6 4.7-0.6 8.3-4.6 8.3-9.4 0-5.8-5.2-10.2-11-9.3-61.7 9.6-364.3 72.8-392 387.3z"/>
			<g id="&lt;Group&gt;">
				<path id="&lt;Path&gt;" class="s3" d="m286.6 456.7c-10.8-22.5-16.9-47.7-16.9-74.4 0-95 77-171.9 172-171.9 38.6 0 74.2 12.6 102.8 34.1q9.1-3.1 17.6-5.8c-32.6-27.3-74.6-43.7-120.4-43.7-103.5 0-187.4 83.8-187.4 187.3 0 33.5 8.8 64.9 24.2 92.1q3.9-9.1 8.1-17.7z"/>
				<path id="&lt;Path&gt;" class="s4" d="m558.5 256.1c34 31.4 55.2 76.4 55.2 126.2 0 95-77 172-172 172-64.2 0-120.2-35.2-149.8-87.4q-4.3 8.2-8.1 16.3c33.3 52 91.6 86.5 157.9 86.5 103.5 0 187.4-83.9 187.4-187.4 0-50.8-20.3-97-53.2-130.7q-8.8 2.1-17.4 4.5z"/>
			</g>
		</g>
	</g>
</svg>